<?xml version="1.0" standalone="no"?>
<!DOCTYPE svg PUBLIC "-//W3C//DTD SVG 20010904//EN"
 "http://www.w3.org/TR/2001/REC-SVG-20010904/DTD/svg10.dtd">
<svg version="1.0" xmlns="http://www.w3.org/2000/svg"
 width="300.000000pt" height="150.000000pt" viewBox="0 0 300.000000 150.000000"
 preserveAspectRatio="xMidYMid meet">

<g transform="translate(0.000000,150.000000) scale(0.100000,-0.100000)"
fill="#000000" stroke="none">
<path d="M583 1477 c-2 -4 -12 -7 -21 -6 -10 1 -29 -3 -43 -9 -15 -6 -35 -12
-45 -14 -11 -2 -21 -6 -24 -9 -3 -4 -25 -16 -50 -29 -25 -12 -60 -33 -77 -47
-18 -13 -33 -22 -33 -19 0 13 -141 -147 -161 -184 -13 -22 -27 -40 -31 -40 -5
0 -6 -4 -3 -10 3 -5 1 -10 -4 -10 -6 0 -10 -3 -9 -7 4 -11 -24 -93 -31 -93 -3
0 -7 -14 -8 -31 -1 -17 -7 -37 -13 -44 -5 -6 -7 -15 -4 -18 4 -3 3 -14 -1 -24
-19 -49 -19 -217 0 -266 4 -10 5 -21 1 -24 -3 -3 -1 -12 4 -19 6 -6 10 -16 8
-20 -1 -5 6 -27 16 -49 9 -22 18 -48 19 -57 1 -10 4 -18 8 -18 8 0 24 -42 20
-49 -2 -2 1 -7 6 -10 5 -3 26 -29 46 -58 57 -78 166 -174 243 -213 38 -19 72
-39 76 -45 5 -6 8 -6 8 0 0 5 5 4 11 -2 6 -6 18 -9 25 -6 8 3 14 0 14 -7 0 -6
4 -9 9 -5 6 3 29 1 53 -5 57 -14 213 -13 258 3 178 60 242 95 255 136 3 12 10
21 15 21 5 0 7 6 4 14 -3 8 -1 17 5 21 13 8 14 39 3 63 -29 58 -43 79 -65 96
-27 20 -101 37 -114 26 -10 -9 -105 -35 -115 -32 -5 1 -8 -3 -8 -9 0 -6 -7 -9
-15 -6 -8 4 -17 2 -21 -4 -3 -6 -12 -8 -20 -5 -7 3 -16 1 -19 -3 -11 -18 -151
-5 -199 19 -92 44 -212 183 -220 252 -1 13 -5 28 -8 33 -20 33 -9 212 14 226
7 5 10 9 5 9 -13 0 23 73 63 126 41 54 155 138 176 130 7 -3 14 0 17 7 5 17
199 17 204 0 3 -7 10 -10 17 -7 8 3 20 -2 29 -10 8 -8 17 -12 21 -9 3 4 6 1 6
-6 0 -7 4 -10 9 -6 5 3 16 -1 24 -9 8 -8 17 -12 21 -9 3 3 13 0 21 -7 12 -10
21 -10 38 -2 12 6 32 13 44 17 29 8 83 70 83 95 0 11 4 20 8 20 4 0 8 16 8 35
0 19 -4 35 -9 35 -5 0 -7 6 -4 13 10 25 -94 111 -164 136 -35 13 -71 26 -79
29 -8 3 -19 4 -24 3 -5 -1 -16 1 -25 5 -23 10 -242 11 -248 1z"/>
<path d="M1402 1479 c-63 -8 -96 -28 -119 -72 -16 -30 -26 -137 -14 -137 4 0
12 -14 20 -31 7 -17 24 -35 37 -41 13 -6 24 -15 24 -20 0 -5 4 -6 10 -3 5 3
18 1 29 -5 28 -14 123 28 147 67 10 15 21 30 24 33 8 8 6 110 -2 110 -5 0 -8
7 -8 15 0 9 -16 32 -35 52 -19 20 -35 33 -35 28 0 -4 -6 -3 -12 2 -7 5 -36 6
-66 2z"/>
<path d="M2144 1477 c-8 -5 -21 -6 -28 -4 -8 3 -18 1 -23 -4 -5 -5 -24 -11
-41 -12 -18 -1 -32 -6 -32 -11 0 -4 -6 -6 -14 -3 -8 3 -16 3 -18 -1 -2 -4 -25
-19 -53 -33 -58 -29 -143 -90 -144 -102 -1 -9 -51 -79 -64 -88 -5 -3 -8 -10
-8 -15 1 -5 -4 -22 -10 -39 -7 -16 -11 -34 -10 -39 1 -5 -1 -16 -4 -25 -9 -22
-9 -122 0 -143 4 -9 4 -22 0 -28 -3 -5 -1 -10 5 -10 7 0 10 -7 6 -15 -3 -8 -1
-15 4 -15 6 0 10 -6 10 -13 0 -7 11 -29 25 -50 14 -20 23 -37 19 -37 -12 0 89
-78 125 -97 20 -10 39 -22 42 -26 3 -5 8 -8 10 -6 2 1 15 -1 29 -5 14 -5 30
-8 37 -7 6 1 14 -3 17 -8 3 -5 15 -7 25 -4 10 3 22 0 25 -6 4 -5 13 -8 21 -4
8 3 23 2 32 -2 10 -4 30 -7 45 -6 14 1 29 -3 33 -8 3 -6 17 -8 30 -5 13 3 30
2 37 -2 7 -5 23 -7 36 -5 12 1 22 -3 22 -9 0 -6 4 -9 9 -6 12 8 71 -14 71 -26
0 -5 4 -7 9 -3 5 3 19 -7 30 -23 22 -32 23 -103 0 -139 -15 -24 -82 -65 -101
-62 -7 1 -22 -2 -32 -6 -11 -5 -31 -4 -48 3 -16 6 -36 8 -44 5 -8 -3 -20 0
-28 6 -7 6 -15 9 -18 6 -10 -11 -96 28 -160 72 -55 37 -76 46 -115 47 -26 1
-54 -3 -62 -9 -17 -13 -63 -59 -76 -76 -11 -16 -14 -121 -4 -129 4 -3 9 -12
11 -19 5 -25 117 -119 163 -138 25 -10 45 -21 45 -25 0 -4 7 -5 15 -2 8 4 15
1 15 -5 0 -6 7 -8 15 -5 8 4 15 2 15 -4 0 -6 9 -8 20 -5 11 3 20 0 20 -6 0 -5
7 -8 15 -5 8 4 23 3 33 -1 25 -11 225 -12 239 -2 7 5 19 7 28 4 8 -4 17 -2 21
4 3 6 12 8 20 5 8 -3 14 -1 14 5 0 6 7 9 15 5 8 -3 15 -2 15 3 0 8 49 25 59
21 2 -1 7 2 10 7 3 5 30 24 59 42 84 53 140 123 183 226 15 36 19 185 6 203
-6 7 -7 15 -4 18 3 3 -1 17 -8 31 -8 15 -12 30 -9 35 3 4 1 8 -3 8 -5 0 -17
16 -27 35 -42 77 -143 145 -257 175 -24 6 -51 14 -59 17 -8 3 -21 5 -29 4 -7
-1 -20 1 -30 5 -17 7 -64 13 -118 13 -17 0 -34 5 -38 11 -3 5 -17 7 -30 4 -12
-3 -26 -1 -30 5 -3 6 -10 9 -15 6 -18 -11 -80 25 -100 57 -25 42 -25 84 0 125
19 32 72 67 84 56 3 -4 6 -2 6 4 0 12 148 14 156 1 3 -4 9 -6 14 -3 5 3 37 -6
72 -21 35 -14 74 -31 88 -36 28 -11 120 -16 120 -7 0 3 10 10 23 16 43 20 86
135 63 171 -4 6 -4 17 -1 22 3 6 1 10 -6 10 -7 0 -10 3 -6 6 9 10 -89 91 -127
105 -20 7 -36 17 -36 22 0 4 -4 6 -8 3 -7 -4 -74 8 -112 21 -26 9 -211 8 -226
0z"/>
<path d="M1364 1020 c-22 -10 -51 -31 -62 -46 -12 -16 -25 -33 -29 -39 -11
-14 -12 -32 -13 -375 -2 -302 2 -399 15 -419 3 -6 3 -15 0 -21 -3 -6 -3 -10 2
-10 4 0 15 -13 25 -29 23 -41 63 -64 114 -66 24 -1 44 1 44 5 0 4 11 12 24 18
13 6 37 30 53 54 l30 43 -3 375 c-1 206 -5 384 -9 395 -18 55 -37 86 -60 97
-14 6 -25 14 -25 17 0 4 -8 7 -17 7 -10 1 -25 4 -33 7 -8 3 -33 -3 -56 -13z"/>
<path d="M2868 233 c6 -2 18 -2 25 0 6 3 1 5 -13 5 -14 0 -19 -2 -12 -5z"/>
<path d="M2850 122 c0 -10 36 -9 46 1 4 4 -5 7 -19 7 -15 0 -27 -4 -27 -8z"/>
</g>
</svg>
